{"title":"Aranmanai 2 2016 Movies DVDScr XviD Clean Audio New +Sample ☻rDX","uid":13362913,"size":740548666,"categoryP":"video","categoryS":"movies","magnet":"?xt=urn:btih:a0d90689ce7c826fe505c9afc33f572eba68a5fb&amp;dn=Aranmanai+2+2016+Movies+DVDScr+XviD+Clean+Audio+New+%2BSample+%E2%98%BBrDX&amp;tr=udp%3A%2F%2Ftracker.leechers-paradise.org%3A6969&amp;tr=udp%3A%2F%2Fzer0day.ch%3A1337&amp;tr=udp%3A%2F%2Fopen.demonii.com%3A1337&amp;tr=udp%3A%2F%2Ftracker.coppersurfer.tk%3A6969&amp;tr=udp%3A%2F%2Fexodus.desync.com%3A6969","seeders":6,"leechers":1,"uploader":"basicssom","files":2,"time":1454144046,"description":"----------------------------------------------------------------\r\nAranmanai 2 2016 Tamil Movies DVDScr XviD AAC Clean Audio New Source with Sample ~ ☻rDX☻\r\n\r\nSCREEN SHOTS &amp; POSTER:\r\n  \nhttp://mobileshosting.com/2016/2/Aranmanai2/11.html  \nhttp://mobileshosting.com/2016/2/Aranmanai2/1.html  \nhttp://mobileshosting.com/2016/2/Aranmanai2/2.html  \nhttp://mobileshosting.com/2016/2/Aranmanai2/3.html  \nhttp://mobileshosting.com/2016/2/Aranmanai2/4.html  \nhttp://mobileshosting.com/2016/2/Aranmanai2/5.html  \nhttp://mobileshosting.com/2016/2/Aranmanai2/6.html  \nhttp://mobileshosting.com/2016/2/Aranmanai2/7.html  \nhttp://mobileshosting.com/2016/2/Aranmanai2/8.html  \nhttp://mobileshosting.com/2016/2/Aranmanai2/9.html  \nhttp://mobileshosting.com/2016/2/Aranmanai2/10.html\r\n\r\nFormat                                   : Matroska\r\nFormat version                           : Version 4 / Version 2\r\nFile size                                : 699 MiB\r\nDuration                                 : 2h 12mn\r\nOverall bit rate                         : 737 Kbps\r\nMovie name                               : Aranmanai 2 2016 Tamil Movies DVDScr XviD AAC Clean Audio New Source ☻rDX☻\r\n\r\nVideo\r\nID                                       : 1\r\nFormat                                   : AVC\r\nFormat/Info                              : Advanced Video Codec\r\nFormat profile                           :   \r\nFormat settings, CABAC                   : Yes\r\nFormat settings, ReFrames                : 4 frames\r\nCodec ID                                 : V_MPEG4/ISO/AVC\r\nDuration                                 : 2h 12mn\r\nBit rate                                 : 639 Kbps\r\nWidth                                    : 608 pixels\r\nHeight                                   : 256 pixels\r\nDisplay aspect ratio                     : 2.40:1\r\nFrame rate mode                          : Constant\r\nFrame rate                               : 29.970 fps\r\nColor space                              : YUV\r\nChroma subsampling                       : 4:2:0\r\nBit depth                                : 8 bits\r\nScan type                                : Progressive\r\nBits/(Pixel*Frame)                       : 0.137\r\nStream size                              : 594 MiB (85%)\r\nTitle                                    : ☻rDX☻\r\nWriting library                          : XviD\r\nLanguage                                 : Tamil\r\nDefault                                  : Yes\r\nForced                                   : Yes\r\n\r\nAudio\r\nID                                       : 2\r\nFormat                                   : MPEG Audio\r\nFormat version                           : Version 1\r\nFormat profile                           : Layer 3\r\nMode                                     : Joint stereo\r\nMode extension                           : MS Stereo\r\nCodec ID                                 : A_MPEG/L3\r\nCodec ID/Hint                            : MP3\r\nDuration                                 : 2h 12mn\r\nBit rate mode                            : Constant\r\nBit rate                                 : 96.0 Kbps\r\nChannel(s)                               : 2 channels\r\nSampling rate                            : 48.0 KHz\r\nCompression mode                         : Lossy\r\nStream size                              : 91.0 MiB (13%)\r\nTitle                                    : ☻rDX☻\r\nWriting library                          : LAME3.98r\r\nEncoding settings                        : -m j -V 4 -q 3 -lowpass 15.1 -b 96\r\nLanguage                                 : Tamil\r\nDefault                                  : Yes\r\nForced                                   : Yes\r\n\r\nIMDB                                      \nhttp://www.imdb.com/title/tt5389922/","torrent":{"xt":"urn:btih:a0d90689ce7c826fe505c9afc33f572eba68a5fb","amp;dn":"Aranmanai+2+2016+Movies+DVDScr+XviD+Clean+Audio+New+%2BSample+%E2%98%BBrDX","amp;tr":["udp%3A%2F%2Ftracker.leechers-paradise.org%3A6969","udp%3A%2F%2Fzer0day.ch%3A1337","udp%3A%2F%2Fopen.demonii.com%3A1337","udp%3A%2F%2Ftracker.coppersurfer.tk%3A6969","udp%3A%2F%2Fexodus.desync.com%3A6969"],"infoHash":"a0d90689ce7c826fe505c9afc33f572eba68a5fb","infoHashBuffer":{"type":"Buffer","data":[160,217,6,137,206,124,130,111,229,5,201,175,195,63,87,46,186,104,165,251]},"announce":[],"urlList":[]}}